<?xml version="1.0" encoding="UTF-8"?>
<svg width="24px" height="32px" viewBox="0 0 24 32" version="1.1" xmlns="http://www.w3.org/2000/svg" xmlns:xlink="http://www.w3.org/1999/xlink">
    <!-- Generator: Sketch 55.2 (78181) - https://sketchapp.com -->
    <title>Action Icon Copy</title>
    <desc>Created with Sketch.</desc>
    <defs>
        <path d="M10,13.75 C11.7258898,13.75 13.125,12.3508898 13.125,10.625 L13.125,4.375 C13.125,2.64911016 11.7258898,1.25 10,1.25 C8.27411016,1.25 6.875,2.64911016 6.875,4.375 L6.875,10.625 C6.875,12.3508898 8.27411016,13.75 10,13.75 Z M8.125,4.375 C8.125,3.33946609 8.96446609,2.5 10,2.5 C11.0355339,2.5 11.875,3.33946609 11.875,4.375 L11.875,10.625 C11.875,11.6605339 11.0355339,12.5 10,12.5 C8.96446609,12.5 8.125,11.6605339 8.125,10.625 L8.125,4.375 Z M14.375,8.75 L14.375,10.625 C14.375,13.0412458 12.4162458,15 10,15 C7.58375422,15 5.625,13.0412458 5.625,10.625 L5.625,8.75 L4.375,8.75 L4.375,10.625 C4.37635932,13.4887252 6.52900666,15.8943086 9.375,16.2125 L9.375,17.5 L6.875,17.5 L6.875,18.75 L13.125,18.75 L13.125,17.5 L10.625,17.5 L10.625,16.2125 C13.4709933,15.8943086 15.6236407,13.4887252 15.625,10.625 L15.625,8.75 L14.375,8.75 Z" id="path-1"></path>
    </defs>
    <g id="Page-1" stroke="none" stroke-width="1" fill="none" fill-rule="evenodd">
        <g id="icon/toggle/microphone/20" transform="translate(2.000000, -1.000000)">
            <mask id="mask-2" fill="white">
                <use xlink:href="#path-1"></use>
            </mask>
            <use id="icon-color" fill="#FFFFFF" fill-rule="evenodd" xlink:href="#path-1"></use>
        </g>
    </g>
</svg>