<?xml version="1.0" encoding="UTF-8"?>
<svg width="12px" height="18px" viewBox="0 0 12 18" version="1.1" xmlns="http://www.w3.org/2000/svg" xmlns:xlink="http://www.w3.org/1999/xlink">
    <!-- Generator: Sketch 55.2 (78181) - https://sketchapp.com -->
    <title>path-1</title>
    <desc>Created with Sketch.</desc>
    <g id="Page-1" stroke="none" stroke-width="1" fill="none" fill-rule="evenodd">
        <g id="mic" fill="#FF0000">
            <path d="M6,12.75 C7.7258898,12.75 9.125,11.3508898 9.125,9.625 L9.125,3.375 C9.125,1.64911016 7.7258898,0.25 6,0.25 C4.27411016,0.25 2.875,1.64911016 2.875,3.375 L2.875,9.625 C2.875,11.3508898 4.27411016,12.75 6,12.75 Z M4.125,3.375 C4.125,2.33946609 4.96446609,1.5 6,1.5 C7.0355339,1.5 7.875,2.33946609 7.875,3.375 L7.875,9.625 C7.875,10.6605339 7.0355339,11.5 6,11.5 C4.96446609,11.5 4.125,10.6605339 4.125,9.625 L4.125,3.375 Z M10.375,7.75 L10.375,9.625 C10.375,12.0412458 8.4162458,14 6,14 C3.58375422,14 1.625,12.0412458 1.625,9.625 L1.625,7.75 L0.375,7.75 L0.375,9.625 C0.37635932,12.4887252 2.52900666,14.8943086 5.375,15.2125 L5.375,16.5 L2.875,16.5 L2.875,17.75 L9.125,17.75 L9.125,16.5 L6.625,16.5 L6.625,15.2125 C9.4709933,14.8943086 11.6236407,12.4887252 11.625,9.625 L11.625,7.75 L10.375,7.75 Z" id="path-1"></path>
        </g>
    </g>
</svg>